<svg width="22" height="22" viewBox="0 0 22 22" fill="none" xmlns="http://www.w3.org/2000/svg">
<path opacity="0.4" d="M11 5.9043V8.9568" stroke="#8E8E8E" stroke-width="1.5" stroke-miterlimit="10" stroke-linecap="round"/>
<path d="M11.018 1.83398C7.64466 1.83398 4.913 4.56565 4.913 7.93898V9.86398C4.913 10.4873 4.65633 11.4223 4.3355 11.954L3.17133 13.8973C2.45633 15.0982 2.95133 16.4365 4.27133 16.8765C8.653 18.334 13.3922 18.334 17.7738 16.8765C19.0113 16.464 19.543 15.0157 18.8738 13.8973L17.7097 11.954C17.3888 11.4223 17.1322 10.4782 17.1322 9.86398V7.93898C17.123 4.58398 14.373 1.83398 11.018 1.83398Z" stroke="#8E8E8E" stroke-width="1.5" stroke-miterlimit="10" stroke-linecap="round"/>
<path opacity="0.4" d="M14.0523 17.252C14.0523 18.9295 12.6773 20.3045 10.9998 20.3045C10.1656 20.3045 9.3956 19.9561 8.8456 19.4061C8.2956 18.8561 7.94727 18.0861 7.94727 17.252" stroke="#8E8E8E" stroke-width="1.5" stroke-miterlimit="10"/>
</svg>
