<svg width="146" height="29" viewBox="0 0 146 29" fill="none" xmlns="http://www.w3.org/2000/svg">
<path d="M0.8 14.68C0.8 12.76 1.16 10.9467 1.88 9.24C2.62667 7.53333 3.62667 6.05333 4.88 4.8C6.16 3.52 7.65333 2.52 9.36 1.8C11.0667 1.05333 12.88 0.679999 14.8 0.679999C16.72 0.679999 18.5333 1.05333 20.24 1.8C21.9467 2.52 23.4267 3.52 24.68 4.8C25.96 6.05333 26.96 7.53333 27.68 9.24C28.4267 10.9467 28.8 12.76 28.8 14.68C28.8 16.6 28.4267 18.4133 27.68 20.12C26.96 21.8267 25.96 23.32 24.68 24.6C23.4267 25.8533 21.9467 26.8533 20.24 27.6C18.5333 28.32 16.72 28.68 14.8 28.68C12.88 28.68 11.0667 28.32 9.36 27.6C7.65333 26.8533 6.16 25.8533 4.88 24.6C3.62667 23.32 2.62667 21.8267 1.88 20.12C1.16 18.4133 0.8 16.6 0.8 14.68ZM9.2 14.68C9.2 15.4533 9.34667 16.1867 9.64 16.88C9.93333 17.5467 10.3333 18.1333 10.84 18.64C11.3467 19.1467 11.9333 19.5467 12.6 19.84C13.2933 20.1333 14.0267 20.28 14.8 20.28C15.5733 20.28 16.2933 20.1333 16.96 19.84C17.6533 19.5467 18.2533 19.1467 18.76 18.64C19.2667 18.1333 19.6667 17.5467 19.96 16.88C20.2533 16.1867 20.4 15.4533 20.4 14.68C20.4 13.9067 20.2533 13.1867 19.96 12.52C19.6667 11.8267 19.2667 11.2267 18.76 10.72C18.2533 10.2133 17.6533 9.81333 16.96 9.52C16.2933 9.22667 15.5733 9.08 14.8 9.08C14.0267 9.08 13.2933 9.22667 12.6 9.52C11.9333 9.81333 11.3467 10.2133 10.84 10.72C10.3333 11.2267 9.93333 11.8267 9.64 12.52C9.34667 13.1867 9.2 13.9067 9.2 14.68ZM30.0094 1.32H37.0094L44.3694 11.6V1.32H52.7294V28H45.6894L38.3694 17.76V28H30.0094V1.32ZM54.5172 28V1.32H61.9172C64.4239 1.32 66.6505 1.6 68.5972 2.16C70.5705 2.72 72.2239 3.56 73.5572 4.68C74.9172 5.8 75.9439 7.2 76.6372 8.88C77.3572 10.5333 77.7172 12.4533 77.7172 14.64C77.7172 16.8267 77.3572 18.76 76.6372 20.44C75.9439 22.0933 74.9172 23.48 73.5572 24.6C72.2239 25.72 70.5705 26.5733 68.5972 27.16C66.6505 27.72 64.4239 28 61.9172 28H54.5172ZM63.0372 20.4C65.0372 20.4 66.5839 19.9333 67.6772 19C68.7705 18.04 69.3172 16.5867 69.3172 14.64C69.3172 12.6933 68.7705 11.2533 67.6772 10.32C66.5839 9.38667 65.0372 8.92 63.0372 8.92V20.4ZM86.8278 1.32H93.2278L103.348 28H94.9478L94.0678 25.6H85.9878L85.1078 28H76.7078L86.8278 1.32ZM91.8278 19.72L90.0278 15.04L88.2278 19.72H91.8278ZM106.467 8.32H101.547V1.32H120.187V8.32H115.267V28H106.467V8.32ZM128.5 1.32H134.9L145.02 28H136.62L135.74 25.6H127.66L126.78 28H118.38L128.5 1.32ZM133.5 19.72L131.7 15.04L129.9 19.72H133.5Z" fill="#003DFF"/>
</svg>
