<svg width="8" height="8" viewBox="0 0 8 8" fill="none" xmlns="http://www.w3.org/2000/svg">
<path d="M3.21803 0.814615C3.95403 0.82709 4.56529 1.08282 5.0518 1.5818C5.53831 2.06832 5.7878 2.67957 5.80028 3.41557C5.80028 3.73992 5.74414 4.04554 5.63187 4.33246C5.53207 4.61938 5.38238 4.87511 5.18279 5.09965L5.29506 5.21192H5.61316L7.59663 7.19539L6.99784 7.79417L5.01438 5.8107V5.4926L4.90211 5.38033C4.67756 5.57992 4.42183 5.73586 4.13492 5.84813C3.848 5.94792 3.54237 5.99782 3.21803 5.99782C2.48203 5.98535 1.86453 5.73586 1.36555 5.24934C0.879039 4.76283 0.629547 4.15158 0.617072 3.41557C0.629547 2.67957 0.879039 2.06832 1.36555 1.5818C1.86453 1.08282 2.48203 0.82709 3.21803 0.814615ZM3.21803 1.61923C2.70657 1.6317 2.28243 1.80635 1.94562 2.14316C1.6088 2.47998 1.4404 2.90412 1.4404 3.41557C1.4404 3.92703 1.6088 4.35117 1.94562 4.68799C2.28243 5.0248 2.70657 5.19321 3.21803 5.19321C3.72949 5.19321 4.15363 5.0248 4.49044 4.68799C4.82726 4.35117 4.99567 3.92703 4.99567 3.41557C4.99567 2.90412 4.82726 2.47998 4.49044 2.14316C4.15363 1.80635 3.72949 1.6317 3.21803 1.61923Z" fill="#464A53"/>
</svg>
