<svg width="20" height="17" viewBox="0 0 20 17" fill="none" xmlns="http://www.w3.org/2000/svg">
<g id="vuesax/twotone/setting-2">
<g id="setting-2">
<path id="Vector" opacity="0.34" d="M9.99994 10.5254C11.3807 10.5254 12.4999 9.58291 12.4999 8.42031C12.4999 7.25771 11.3807 6.31523 9.99994 6.31523C8.61923 6.31523 7.49994 7.25771 7.49994 8.42031C7.49994 9.58291 8.61923 10.5254 9.99994 10.5254Z" stroke="#8E8E8E" stroke-width="1.5" stroke-miterlimit="10" stroke-linecap="round" stroke-linejoin="round"/>
<path id="Vector_2" d="M1.66681 9.03762V7.80264C1.66681 7.07288 2.37514 6.46943 3.25014 6.46943C4.75848 6.46943 5.37514 5.57126 4.61681 4.4696C4.18348 3.83808 4.44181 3.0171 5.20014 2.65222L6.64181 1.95754C7.30014 1.62774 8.15014 1.82422 8.54181 2.37856L8.63348 2.51188C9.38348 3.61353 10.6168 3.61353 11.3751 2.51188L11.4668 2.37856C11.8585 1.82422 12.7085 1.62774 13.3668 1.95754L14.8085 2.65222C15.5668 3.0171 15.8251 3.83808 15.3918 4.4696C14.6335 5.57126 15.2501 6.46943 16.7585 6.46943C17.6251 6.46943 18.3418 7.06586 18.3418 7.80264V9.03762C18.3418 9.76738 17.6335 10.3708 16.7585 10.3708C15.2501 10.3708 14.6335 11.269 15.3918 12.3707C15.8251 13.0092 15.5668 13.8232 14.8085 14.188L13.3668 14.8827C12.7085 15.2125 11.8585 15.016 11.4668 14.4617L11.3751 14.3284C10.6251 13.2267 9.39181 13.2267 8.63348 14.3284L8.54181 14.4617C8.15014 15.016 7.30014 15.2125 6.64181 14.8827L5.20014 14.188C4.44181 13.8232 4.18348 13.0022 4.61681 12.3707C5.37514 11.269 4.75848 10.3708 3.25014 10.3708C2.37514 10.3708 1.66681 9.76738 1.66681 9.03762Z" stroke="#8E8E8E" stroke-width="1.5" stroke-miterlimit="10" stroke-linecap="round" stroke-linejoin="round"/>
</g>
</g>
</svg>
