<svg width="43" height="43" viewBox="0 0 43 43" fill="none" xmlns="http://www.w3.org/2000/svg">
<circle cx="21.5" cy="21.5" r="21.5" fill="#C4C4C4"/>
<path d="M11.5808 29.0093L11.5608 29.0293C11.2908 28.4393 11.1208 27.7693 11.0508 27.0293C11.1208 27.7593 11.3108 28.4193 11.5808 29.0093Z" fill="#292D32"/>
<path d="M17.9991 20.3791C19.3136 20.3791 20.3791 19.3136 20.3791 17.9991C20.3791 16.6847 19.3136 15.6191 17.9991 15.6191C16.6847 15.6191 15.6191 16.6847 15.6191 17.9991C15.6191 19.3136 16.6847 20.3791 17.9991 20.3791Z" fill="#292D32"/>
<path d="M25.19 12H16.81C13.17 12 11 14.17 11 17.81V26.19C11 27.28 11.19 28.23 11.56 29.03C12.42 30.93 14.26 32 16.81 32H25.19C28.83 32 31 29.83 31 26.19V23.9V17.81C31 14.17 28.83 12 25.19 12ZM29.37 22.5C28.59 21.83 27.33 21.83 26.55 22.5L22.39 26.07C21.61 26.74 20.35 26.74 19.57 26.07L19.23 25.79C18.52 25.17 17.39 25.11 16.59 25.65L12.85 28.16C12.63 27.6 12.5 26.95 12.5 26.19V17.81C12.5 14.99 13.99 13.5 16.81 13.5H25.19C28.01 13.5 29.5 14.99 29.5 17.81V22.61L29.37 22.5Z" fill="#292D32"/>
</svg>
